<?xml version="1.0" encoding="UTF-8"?>
<svg version="1.1" viewBox="0 0 1653 2048" width="1280" height="1280" xmlns="http://www.w3.org/2000/svg">
<path transform="translate(160,748)" d="m0 0h13l10 3 8 7 3 8v11h1250v-13l4-8 6-5 11-3h13l5 1-4 3-7 6-3 8v8l4 10 7 11 2 6v14l-4 8-5 4-6 2h-396v519h-504v-519h-397l-8-4-5-6-2-7v-7l3-11 7-10 3-7v-14l-5-8-7-4-2-2zm459 81v467h38l1-1v-466zm91 0v466l1 1h216l1-1v-465l-1-1zm270 0v467h38l1-1v-466z" fill="#235BA8"/>
<path transform="translate(1402,990)" d="m0 0h60l30 3 28 5 30 8 26 10 22 11 18 12 14 12 1 1v27l-1 105-4-2-11-10-17-12-16-9-19-9-30-10-22-5-29-4-17-1h-16l-25 2-22 4-24 8-21 11-14 10-14 12-11 12-13 18-10 17-9 19-8 22-8 32-4 25-2 20v51l3 25 6 27 7 21 9 20 10 18 12 17 12 14 9 9 14 11 14 9 15 8 20 7 18 4 23 2 21-1 14-3 13-5 11-6 6-5 1-101h-57v-120h195l1 1v298l-6 12-10 11-8 7-13 10-19 12-24 13-28 12-28 9-27 6-20 3-11 1h-46l-25-3-24-5-26-8-21-9-16-8-16-9-17-12-18-14-10-9-8-7-16-16-9-11-12-15-16-24-9-15-12-23-11-27-9-28-7-30-5-32-3-32v-64l3-33 5-32 7-31 8-28 9-26 9-20 8-16 9-16 10-15 9-12 9-11 18-20 13-11 12-10 19-13 17-10 22-11 24-9 23-7 24-5 21-3zm5 54-26 3-21 5-20 7-25 12-18 11-11 8-10 8-12 11-14 14-9 11-11 15-12 19-13 25-11 27-8 26-6 25-5 30-3 32v59l3 30 5 26 7 24 8 22 13 29 10 17 14 19 12 14 7 7 7 8 11 9 15 12 20 13 22 12 27 11 22 6 21 4 20 2h28l22-2 26-5 24-7 21-9 20-12 12-9 11-9 8-9v-205h-89v21l68 1-1 173-7 8-18 13-16 9-20 8-21 6-22 4-9 1h-43l-21-3-21-5-22-8-25-12-15-9-14-10-13-11-8-7-14-14-9-11-10-14-9-15-8-16-8-19-7-21-6-25-4-25-2-22v-45l3-35 5-32 6-26 11-33 12-26 12-21 12-17 11-12 7-8 10-11 11-9 17-12 18-11 21-10 18-6 19-4 17-2h46l31 3 24 4 28 7 29 10 21 10 3-1 9-14-1-4-17-9-24-9-27-8-29-6-27-4-23-2z" fill="#235BA8"/>
<path transform="translate(223,985)" d="m0 0h37l29 3 36 7 29 8 33 11 30 12 25 11 12 6v142l-16-8-18-10-29-13-27-11-28-10-28-8-25-5-16-2h-33l-18 3-19 7-11 7-9 9-7 12-4 14v15l4 16 8 15 11 12 9 7 18 10 34 16 28 13 38 19 23 13 18 10 19 12 16 11 16 12 15 14 18 18 12 16 9 16 8 20 4 13 4 22 1 9v46l-4 29-6 26-9 26-12 25-13 20-10 13-10 11-14 11-14 9-25 13-21 8-23 7-24 5-23 3-12 1h-46l-30-3-28-5-28-7-29-10-24-11-22-11-27-16-8-6v-154l9 5 16 12 22 14 24 14 23 12 19 9 26 10 21 7 21 5 19 3 10 1h27l18-3 13-5 10-6 10-9 7-11 4-11 1-5v-22l-4-16-5-12-8-12-9-11-14-11-15-8-26-11-38-15-30-13-26-12-19-10-23-14-15-10-14-10-10-9-8-7-13-14-12-16-9-15-6-14-6-19-4-20-3-28v-36l3-26 5-23 7-21 12-23 11-16 10-13 10-11 11-9 17-13 20-12 22-11 26-10 26-7 22-4zm18 54-27 2-26 5-20 6-21 9-17 10-12 9-12 11-10 11-13 18-10 19-5 16-2 12-1 20 2 19 5 19 6 15 10 19 12 17 13 15 17 17 11 9 16 12 15 9 19 10 26 10 38 12 24 10 22 11 15 10 10 8 10 9 8 7 12 13 11 14 9 15 9 19 5 15 3 14 1 10v13l-2 15-4 15-8 16-7 10-8 9-11 9-18 12-16 8-17 7-19 6-24 5-19 2h-29l-26-3-24-5-33-11-20-9-20-10-20-12-4 2-8 14v3l23 13 19 10 22 10 33 11 26 6 22 3 15 1h17l23-2 23-4 23-6 22-8 21-11 21-14 12-11 10-10 9-12 8-15 6-17 3-14 1-8v-23l-3-19-6-20-8-18-10-18-14-19-12-13-13-13-11-9-15-11-18-11-21-11-23-9-25-8-30-10-16-8-18-10-17-12-11-9-20-20-8-10-10-15-9-16-6-17-4-20v-23l3-15 6-16 8-14 8-10 10-11 14-11 15-10 21-10 19-6 20-4 19-2h28l29 3 34 7 29 9 21 8 36 16h2l9-17v-2l-21-11-28-11-24-8-27-7-24-5-29-4z" fill="#235BA8"/>
<path transform="translate(245,649)" d="m0 0h13l10 3 8 7 3 8v11h1080v-12l3-7 4-5 9-4 5-1h13l5 1-4 3-7 6-3 8v7l3 10 7 10 3 8v14l-4 8-7 5-4 1h-1127l-8-4-5-6-2-7v-7l3-11 9-14 1-3v-14l-5-8-7-4-2-2z" fill="#235BA8"/>
<path transform="translate(323,559)" d="m0 0h18l10 4 7 8 2 8v9h918v-11l4-10 8-6 7-2h18l3 2-8 4-5 6-1 3v13l6 12 5 8 2 8v8l-4 10-5 4-8 3h-962l-8-3-6-5-3-8v-11l3-9 7-10 3-8v-11l-4-8-7-5-3-2z" fill="#235BA8"/>
<path transform="translate(403,468)" d="m0 0 13 1 9 4 6 7 2 6v11h772v-13l3-6 5-5 5-3 11-2 15 1-3 3-6 4-4 6-1 4v8l4 11 6 9 3 8v13l-4 8-5 4-5 2-6 1h-809l-9-2-8-7-3-10 1-11 5-10 6-10 2-8-1-9-5-8-8-4v-2z" fill="#235BA8"/>
<path transform="translate(475,378)" d="m0 0h14l10 3 7 6 3 7v13h619v-9l3-9 6-7 7-3 5-1h14l5 1-4 3-6 4-4 8v12l6 12 5 8 2 7v10l-3 8-7 6-5 2h-666l-7-3-5-5-3-6v-14l4-9 7-11 2-7v-9l-4-8-6-5-4-3z" fill="#235BA8"/>
<path transform="translate(470,1679)" d="m0 0h697v52h-697z" fill="#235BA8"/>
<path transform="translate(509,1582)" d="m0 0h619l1 1v51h-620z" fill="#235BA8"/>
<path transform="translate(551,288)" d="m0 0h19l10 4 7 8 2 8v9h460v-11l4-10 8-6 7-2h18l3 2-8 4-5 6-1 3v13l6 12 5 8 2 8v8l-4 10-5 4-8 3h-504l-8-3-6-5-3-8v-11l3-9 7-10 3-8v-11l-4-8-7-5-3-2z" fill="#235BA8"/>
<path transform="translate(544,1485)" d="m0 0h550v52h-550z" fill="#235BA8"/>
<path transform="translate(1069,1387)" d="m0 0 2 1v52h-504v-52z" fill="#235BA8"/>
<path transform="translate(636,197)" d="m0 0 13 1 8 3 5 5 3 4 1 3v13h305v-9l3-9 5-6 9-4 13-1 10 1-1 2-6 3-5 6-2 4v12l4 9 7 11 2 7v11l-5 10-6 4-9 2h-342l-9-2-6-4-4-6-1-3v-13l4-10 7-11 2-7v-8l-3-8-6-5-5-3v-1z" fill="#235BA8"/>
<path transform="translate(292,1889)" d="m0 0h46l4 8 33 82v3h2l3-10 23-57 10-25 1-1h47v156h-34l-1-105-20 50-21 52-2 3h-14l-4-8-24-60-15-37-1 105h-33z" fill="#235BA8"/>
<path transform="translate(275,876)" d="m0 0h39l27 3 22 5 18 6 19 9 12 8 13 11 11 12 9 14 8 16-1 2-14-14-13-10-14-9-17-9-19-7-19-5-20-3-26-1-28 2-29 5-31 8-33 11-30 12-27 12-26 12-19 6-20 3h-13l-13-2-12-4-12-7-8-8-5-8-3-9v-14l4-11 6-8 5-5 9-7 13-6 8-2-4 10v13l5 10 8 7 9 4 5 1h13l15-4 49-18 28-10 25-8 28-7 24-4z" fill="#235BA8"/>
<path transform="translate(1339,876)" d="m0 0 32 1 26 3 29 6 25 7 41 14 40 15 21 7 11 1 12-2 10-5 5-4 5-9 1-4v-10l-4-11 9 2 14 7 11 9 7 10 4 13v9l-4 13-6 8-7 7-12 7-13 4-6 1h-24l-20-4-17-6-32-15-36-15-30-11-31-9-22-5-27-4-11-1h-31l-24 3-20 5-19 7-21 11-16 11-14 12-8 8-1-2 8-16 7-11 12-14 13-11 14-9 19-9 18-6 24-5 18-2z" fill="#235BA8"/>
<path transform="translate(628,1889)" d="m0 0h35l13 17 10 14 28 38 12 16 8 11 1-96h33v156h-32l-8-10-10-14-14-19-13-18-14-19-13-18-1-1-1 98-1 1h-33z" fill="#235BA8"/>
<path transform="translate(927,1886)" d="m0 0h15l16 3 13 5 11 7 13 13 4 7-8 5-18 10h-2l-7-8-8-6-9-4-4-1h-18l-12 4-11 7-8 10-5 11-2 8v20l4 13 6 10 5 6 11 7 13 4h17l13-4 9-5 3-1v-19h-41v-29h74v60l-10 10-14 9-11 5-14 4-7 1h-20l-16-3-13-5-12-7-12-10-9-12-6-12-4-13-2-17 1-16 4-16 7-14 7-9 5-6 12-9 16-8 16-4z" fill="#235BA8"/>
<path transform="translate(1028,1889)" d="m0 0h83l11 3 12 6 10 10 7 14 2 9v16l-3 12-6 11-8 8-14 7h-3l26 44 9 15v1h-38l-5-8-16-29-10-18-24-1v56h-33zm33 29v42h41l8-3 5-5 3-4 1-4v-10l-4-8-7-6-7-2z" fill="#235BA8"/>
<path transform="translate(710,103)" d="m0 0h15l10 3 6 5 4 9v12l147-1v-7l3-10 6-7 7-3 5-1h14l5 1-4 3-5 3-4 7-1 3v10l4 10 6 8 3 9v12l-4 8-6 5-5 2h-194l-9-4-5-7-1-3v-15l5-10 6-10 2-7-1-11-4-6-5-4-5-2v-1z" fill="#235BA8"/>
<path transform="translate(1178,1889)" d="m0 0h111v29h-78v33h76v29l-75 1v34l77 1v29h-111z" fill="#235BA8"/>
<path transform="translate(155,1889)" d="m0 0h111v29h-78v33h76v29l-75 1v34l77 1v29h-111z" fill="#235BA8"/>
<path transform="translate(492,1889)" d="m0 0h110v29h-77v33h76v29h-76v36h77v29h-110z" fill="#235BA8"/>
<path transform="translate(64,1886)" d="m0 0h9l17 2 16 5 12 6 10 8v3l-12 16-5 6-4-2-11-7-14-5-14-2-12 1-8 4-4 6v7l2 4 10 5 23 6 20 6 16 8 10 9 6 12 2 11-1 14-4 11-6 9-7 7-16 8-12 3-9 1h-17l-19-3-16-6-12-7-10-9 7-11 10-14 4 2 10 8 13 6 11 3 7 1h11l12-3 7-6 2-5-1-8-1-3-4-2-13-5-32-8-15-6-10-7-8-9-4-10-1-4v-15l3-10 6-10 5-5 7-6 10-5 14-4z" fill="#235BA8"/>
<path transform="translate(1364,1886)" d="m0 0h9l17 2 16 5 12 6 9 7 2 3-13 17-5 6-4-2-11-7-14-5-14-2-12 1-8 4-4 6v7l5 6 10 4 31 8 16 6 11 6 9 9 5 10 2 11v8l-3 14-6 11-9 9-16 8-12 3-9 1h-17l-19-3-16-6-12-7-10-9 6-9 11-15h3l10 8 14 7 11 3 7 1h11l12-3 7-6 2-4v-7l-3-5-10-5-18-5-23-6-13-6-9-6-8-9-4-10-1-5v-14l3-10 6-10 9-9 11-6 12-4z" fill="#235BA8"/>
<path transform="translate(1519,1889)" d="m0 0h34l1 67 13-16 22-28 12-15 6-8h41l-4 6-13 15-9 11-13 15-9 11-12 14 2 5 11 13 11 14 13 16 11 14 13 16 4 6h-41l-9-11-12-16-16-21-9-12v-2l-5 4-7 9-1 48-1 1h-33z" fill="#235BA8"/>
<path transform="translate(1455,1889)" d="m0 0h33v156h-33z" fill="#235BA8"/>
<path transform="translate(768,21)" d="m0 0h9l10 5 12 12 7 4 4 1h18l9-4 8-7 7-7 5-3 4-1h8l14 5 1 2-13 4-5 5-4 7-3 16-2 10-4 7-8 7-12 4h-28l-12-4-8-6-5-10-4-23-4-8-7-6-12-3 4-3z" fill="#235BA8"/>
<path transform="translate(813)" d="m0 0h12l10 4 6 7v7l-4 6-7 4-4 1h-15l-10-5-4-5v-8l3-5 6-4z" fill="#235BA8"/>
</svg>
